<svg xmlns="http://www.w3.org/2000/svg" xmlns:xlink="http://www.w3.org/1999/xlink" xmlns:s="https://github.com/nturley/netlistsvg" width="1086" height="1082.5">
  <rect width="100%" height="100%" fill="white"/><style>svg {
  stroke:#000;
  fill:none;
}
text {
  fill:#000;
  stroke:none;
  font-size:10px;
  font-weight: bold;
  font-family: "Courier New", monospace;
}
line {
    stroke-linecap: round;
}
.nodelabel {
  text-anchor: middle;
}
.inputPortLabel {
  text-anchor: end;
}
.splitjoinBody {
  fill:#000;
}</style><g s:type="generic" transform="translate(542,611.5)" s:width="30" s:height="40" id="cell_cuenta_j1"><text x="15" y="-4" class="nodelabel cell_cuenta_j1" s:attribute="ref">pulsecounter</text><rect width="30" height="60" s:generic="body" class="cell_cuenta_j1"/><g transform="translate(0,10)" s:x="0" s:y="10" s:pid="in0" id="port_cuenta_j1~clk_i"><text x="-3" y="-4" class="inputPortLabel cell_cuenta_j1">clk_i</text></g><g transform="translate(0,30)" s:x="0" s:y="10" s:pid="in0" id="port_cuenta_j1~rst_i"><text x="-3" y="-4" class="inputPortLabel cell_cuenta_j1">rst_i</text></g><g transform="translate(0,50)" s:x="0" s:y="10" s:pid="in0" id="port_cuenta_j1~s_i"><text x="-3" y="-4" class="inputPortLabel cell_cuenta_j1">s_i</text></g><g transform="translate(30,10)" s:x="30" s:y="10" s:pid="out0" id="port_cuenta_j1~count_o"><text x="5" y="-4" style="fill:#000; stroke:none" class="cell_cuenta_j1">count_o</text></g></g><g s:type="generic" transform="translate(542,804)" s:width="30" s:height="40" id="cell_cuenta_j2"><text x="15" y="-4" class="nodelabel cell_cuenta_j2" s:attribute="ref">pulsecounter</text><rect width="30" height="60" s:generic="body" class="cell_cuenta_j2"/><g transform="translate(0,10)" s:x="0" s:y="10" s:pid="in0" id="port_cuenta_j2~clk_i"><text x="-3" y="-4" class="inputPortLabel cell_cuenta_j2">clk_i</text></g><g transform="translate(0,30)" s:x="0" s:y="10" s:pid="in0" id="port_cuenta_j2~rst_i"><text x="-3" y="-4" class="inputPortLabel cell_cuenta_j2">rst_i</text></g><g transform="translate(0,50)" s:x="0" s:y="10" s:pid="in0" id="port_cuenta_j2~s_i"><text x="-3" y="-4" class="inputPortLabel cell_cuenta_j2">s_i</text></g><g transform="translate(30,10)" s:x="30" s:y="10" s:pid="out0" id="port_cuenta_j2~count_o"><text x="5" y="-4" style="fill:#000; stroke:none" class="cell_cuenta_j2">count_o</text></g></g><g s:type="generic" transform="translate(929,86.5)" s:width="30" s:height="40" id="cell_flip_b"><text x="15" y="-4" class="nodelabel cell_flip_b" s:attribute="ref">flipflop</text><rect width="30" height="60" s:generic="body" class="cell_flip_b"/><g transform="translate(0,10)" s:x="0" s:y="10" s:pid="in0" id="port_flip_b~clk_i"><text x="-3" y="-4" class="inputPortLabel cell_flip_b">clk_i</text></g><g transform="translate(0,30)" s:x="0" s:y="10" s:pid="in0" id="port_flip_b~dato_i"><text x="-3" y="-4" class="inputPortLabel cell_flip_b">dato_i</text></g><g transform="translate(0,50)" s:x="0" s:y="10" s:pid="in0" id="port_flip_b~rst_i"><text x="-3" y="-4" class="inputPortLabel cell_flip_b">rst_i</text></g><g transform="translate(30,10)" s:x="30" s:y="10" s:pid="out0" id="port_flip_b~dato_o"><text x="5" y="-4" style="fill:#000; stroke:none" class="cell_flip_b">dato_o</text></g></g><g s:type="generic" transform="translate(929,470)" s:width="30" s:height="40" id="cell_flip_g"><text x="15" y="-4" class="nodelabel cell_flip_g" s:attribute="ref">flipflop</text><rect width="30" height="60" s:generic="body" class="cell_flip_g"/><g transform="translate(0,10)" s:x="0" s:y="10" s:pid="in0" id="port_flip_g~clk_i"><text x="-3" y="-4" class="inputPortLabel cell_flip_g">clk_i</text></g><g transform="translate(0,30)" s:x="0" s:y="10" s:pid="in0" id="port_flip_g~dato_i"><text x="-3" y="-4" class="inputPortLabel cell_flip_g">dato_i</text></g><g transform="translate(0,50)" s:x="0" s:y="10" s:pid="in0" id="port_flip_g~rst_i"><text x="-3" y="-4" class="inputPortLabel cell_flip_g">rst_i</text></g><g transform="translate(30,10)" s:x="30" s:y="10" s:pid="out0" id="port_flip_g~dato_o"><text x="5" y="-4" style="fill:#000; stroke:none" class="cell_flip_g">dato_o</text></g></g><g s:type="generic" transform="translate(929,194.5)" s:width="30" s:height="40" id="cell_flip_hsync"><text x="15" y="-4" class="nodelabel cell_flip_hsync" s:attribute="ref">flipflop</text><rect width="30" height="60" s:generic="body" class="cell_flip_hsync"/><g transform="translate(0,10)" s:x="0" s:y="10" s:pid="in0" id="port_flip_hsync~clk_i"><text x="-3" y="-4" class="inputPortLabel cell_flip_hsync">clk_i</text></g><g transform="translate(0,30)" s:x="0" s:y="10" s:pid="in0" id="port_flip_hsync~dato_i"><text x="-3" y="-4" class="inputPortLabel cell_flip_hsync">dato_i</text></g><g transform="translate(0,50)" s:x="0" s:y="10" s:pid="in0" id="port_flip_hsync~rst_i"><text x="-3" y="-4" class="inputPortLabel cell_flip_hsync">rst_i</text></g><g transform="translate(30,10)" s:x="30" s:y="10" s:pid="out0" id="port_flip_hsync~dato_o"><text x="5" y="-4" style="fill:#000; stroke:none" class="cell_flip_hsync">dato_o</text></g></g><g s:type="generic" transform="translate(929,899.5)" s:width="30" s:height="40" id="cell_flip_r"><text x="15" y="-4" class="nodelabel cell_flip_r" s:attribute="ref">flipflop</text><rect width="30" height="60" s:generic="body" class="cell_flip_r"/><g transform="translate(0,10)" s:x="0" s:y="10" s:pid="in0" id="port_flip_r~clk_i"><text x="-3" y="-4" class="inputPortLabel cell_flip_r">clk_i</text></g><g transform="translate(0,30)" s:x="0" s:y="10" s:pid="in0" id="port_flip_r~dato_i"><text x="-3" y="-4" class="inputPortLabel cell_flip_r">dato_i</text></g><g transform="translate(0,50)" s:x="0" s:y="10" s:pid="in0" id="port_flip_r~rst_i"><text x="-3" y="-4" class="inputPortLabel cell_flip_r">rst_i</text></g><g transform="translate(30,10)" s:x="30" s:y="10" s:pid="out0" id="port_flip_r~dato_o"><text x="5" y="-4" style="fill:#000; stroke:none" class="cell_flip_r">dato_o</text></g></g><g s:type="generic" transform="translate(929,1007.5)" s:width="30" s:height="40" id="cell_flip_vsync"><text x="15" y="-4" class="nodelabel cell_flip_vsync" s:attribute="ref">flipflop</text><rect width="30" height="60" s:generic="body" class="cell_flip_vsync"/><g transform="translate(0,10)" s:x="0" s:y="10" s:pid="in0" id="port_flip_vsync~clk_i"><text x="-3" y="-4" class="inputPortLabel cell_flip_vsync">clk_i</text></g><g transform="translate(0,30)" s:x="0" s:y="10" s:pid="in0" id="port_flip_vsync~dato_i"><text x="-3" y="-4" class="inputPortLabel cell_flip_vsync">dato_i</text></g><g transform="translate(0,50)" s:x="0" s:y="10" s:pid="in0" id="port_flip_vsync~rst_i"><text x="-3" y="-4" class="inputPortLabel cell_flip_vsync">rst_i</text></g><g transform="translate(30,10)" s:x="30" s:y="10" s:pid="out0" id="port_flip_vsync~dato_o"><text x="5" y="-4" style="fill:#000; stroke:none" class="cell_flip_vsync">dato_o</text></g></g><g s:type="generic" transform="translate(367,611.5)" s:width="30" s:height="40" id="cell_pelota"><text x="15" y="-4" class="nodelabel cell_pelota" s:attribute="ref">ballhitbox</text><rect width="30" height="120" s:generic="body" class="cell_pelota"/><g transform="translate(0,10)" s:x="0" s:y="10" s:pid="in0" id="port_pelota~clk_i"><text x="-3" y="-4" class="inputPortLabel cell_pelota">clk_i</text></g><g transform="translate(0,30)" s:x="0" s:y="10" s:pid="in0" id="port_pelota~pad1y_i"><text x="-3" y="-4" class="inputPortLabel cell_pelota">pad1y_i</text></g><g transform="translate(0,50)" s:x="0" s:y="10" s:pid="in0" id="port_pelota~pad2y_i"><text x="-3" y="-4" class="inputPortLabel cell_pelota">pad2y_i</text></g><g transform="translate(0,70)" s:x="0" s:y="10" s:pid="in0" id="port_pelota~pixelx_i"><text x="-3" y="-4" class="inputPortLabel cell_pelota">pixelx_i</text></g><g transform="translate(0,90)" s:x="0" s:y="10" s:pid="in0" id="port_pelota~pixely_i"><text x="-3" y="-4" class="inputPortLabel cell_pelota">pixely_i</text></g><g transform="translate(0,110)" s:x="0" s:y="10" s:pid="in0" id="port_pelota~rst_i"><text x="-3" y="-4" class="inputPortLabel cell_pelota">rst_i</text></g><g transform="translate(30,10)" s:x="30" s:y="10" s:pid="out0" id="port_pelota~ballx_o"><text x="5" y="-4" style="fill:#000; stroke:none" class="cell_pelota">ballx_o</text></g><g transform="translate(30,30)" s:x="30" s:y="10" s:pid="out0" id="port_pelota~bally_o"><text x="5" y="-4" style="fill:#000; stroke:none" class="cell_pelota">bally_o</text></g><g transform="translate(30,50)" s:x="30" s:y="10" s:pid="out0" id="port_pelota~score1"><text x="5" y="-4" style="fill:#000; stroke:none" class="cell_pelota">score1</text></g><g transform="translate(30,70)" s:x="30" s:y="10" s:pid="out0" id="port_pelota~score2"><text x="5" y="-4" style="fill:#000; stroke:none" class="cell_pelota">score2</text></g></g><g s:type="generic" transform="translate(161,356)" s:width="30" s:height="40" id="cell_raqueta_der"><text x="15" y="-4" class="nodelabel cell_raqueta_der" s:attribute="ref">pad</text><rect width="30" height="80" s:generic="body" class="cell_raqueta_der"/><g transform="translate(0,10)" s:x="0" s:y="10" s:pid="in0" id="port_raqueta_der~btndown_i"><text x="-3" y="-4" class="inputPortLabel cell_raqueta_der">btndown_i</text></g><g transform="translate(0,30)" s:x="0" s:y="10" s:pid="in0" id="port_raqueta_der~btnup_i"><text x="-3" y="-4" class="inputPortLabel cell_raqueta_der">btnup_i</text></g><g transform="translate(0,50)" s:x="0" s:y="10" s:pid="in0" id="port_raqueta_der~clk_i"><text x="-3" y="-4" class="inputPortLabel cell_raqueta_der">clk_i</text></g><g transform="translate(0,70)" s:x="0" s:y="10" s:pid="in0" id="port_raqueta_der~rst_i"><text x="-3" y="-4" class="inputPortLabel cell_raqueta_der">rst_i</text></g><g transform="translate(30,10)" s:x="30" s:y="10" s:pid="out0" id="port_raqueta_der~pady_o"><text x="5" y="-4" style="fill:#000; stroke:none" class="cell_raqueta_der">pady_o</text></g></g><g s:type="generic" transform="translate(161,226)" s:width="30" s:height="40" id="cell_raqueta_izq"><text x="15" y="-4" class="nodelabel cell_raqueta_izq" s:attribute="ref">pad</text><rect width="30" height="80" s:generic="body" class="cell_raqueta_izq"/><g transform="translate(0,10)" s:x="0" s:y="10" s:pid="in0" id="port_raqueta_izq~btndown_i"><text x="-3" y="-4" class="inputPortLabel cell_raqueta_izq">btndown_i</text></g><g transform="translate(0,30)" s:x="0" s:y="10" s:pid="in0" id="port_raqueta_izq~btnup_i"><text x="-3" y="-4" class="inputPortLabel cell_raqueta_izq">btnup_i</text></g><g transform="translate(0,50)" s:x="0" s:y="10" s:pid="in0" id="port_raqueta_izq~clk_i"><text x="-3" y="-4" class="inputPortLabel cell_raqueta_izq">clk_i</text></g><g transform="translate(0,70)" s:x="0" s:y="10" s:pid="in0" id="port_raqueta_izq~rst_i"><text x="-3" y="-4" class="inputPortLabel cell_raqueta_izq">rst_i</text></g><g transform="translate(30,10)" s:x="30" s:y="10" s:pid="out0" id="port_raqueta_izq~pady_o"><text x="5" y="-4" style="fill:#000; stroke:none" class="cell_raqueta_izq">pady_o</text></g></g><g s:type="generic" transform="translate(756,470)" s:width="30" s:height="40" id="cell_render_principal"><text x="15" y="-4" class="nodelabel cell_render_principal" s:attribute="ref">render</text><rect width="30" height="180" s:generic="body" class="cell_render_principal"/><g transform="translate(0,10)" s:x="0" s:y="10" s:pid="in0" id="port_render_principal~ballx_i"><text x="-3" y="-4" class="inputPortLabel cell_render_principal">ballx_i</text></g><g transform="translate(0,30)" s:x="0" s:y="10" s:pid="in0" id="port_render_principal~bally_i"><text x="-3" y="-4" class="inputPortLabel cell_render_principal">bally_i</text></g><g transform="translate(0,50)" s:x="0" s:y="10" s:pid="in0" id="port_render_principal~pad1y_i"><text x="-3" y="-4" class="inputPortLabel cell_render_principal">pad1y_i</text></g><g transform="translate(0,70)" s:x="0" s:y="10" s:pid="in0" id="port_render_principal~pad2y_i"><text x="-3" y="-4" class="inputPortLabel cell_render_principal">pad2y_i</text></g><g transform="translate(0,90)" s:x="0" s:y="10" s:pid="in0" id="port_render_principal~pixelx_i"><text x="-3" y="-4" class="inputPortLabel cell_render_principal">pixelx_i</text></g><g transform="translate(0,110)" s:x="0" s:y="10" s:pid="in0" id="port_render_principal~pixely_i"><text x="-3" y="-4" class="inputPortLabel cell_render_principal">pixely_i</text></g><g transform="translate(0,130)" s:x="0" s:y="10" s:pid="in0" id="port_render_principal~score1_i"><text x="-3" y="-4" class="inputPortLabel cell_render_principal">score1_i</text></g><g transform="translate(0,150)" s:x="0" s:y="10" s:pid="in0" id="port_render_principal~score2_i"><text x="-3" y="-4" class="inputPortLabel cell_render_principal">score2_i</text></g><g transform="translate(0,170)" s:x="0" s:y="10" s:pid="in0" id="port_render_principal~video_on_i"><text x="-3" y="-4" class="inputPortLabel cell_render_principal">video_on_i</text></g><g transform="translate(30,10)" s:x="30" s:y="10" s:pid="out0" id="port_render_principal~b_o"><text x="5" y="-4" style="fill:#000; stroke:none" class="cell_render_principal">b_o</text></g><g transform="translate(30,30)" s:x="30" s:y="10" s:pid="out0" id="port_render_principal~g_o"><text x="5" y="-4" style="fill:#000; stroke:none" class="cell_render_principal">g_o</text></g><g transform="translate(30,50)" s:x="30" s:y="10" s:pid="out0" id="port_render_principal~r_o"><text x="5" y="-4" style="fill:#000; stroke:none" class="cell_render_principal">r_o</text></g></g><g s:type="generic" transform="translate(137,651.5)" s:width="30" s:height="40" id="cell_vga_principal"><text x="15" y="-4" class="nodelabel cell_vga_principal" s:attribute="ref">vga</text><rect width="30" height="100" s:generic="body" class="cell_vga_principal"/><g transform="translate(0,10)" s:x="0" s:y="10" s:pid="in0" id="port_vga_principal~clk_i"><text x="-3" y="-4" class="inputPortLabel cell_vga_principal">clk_i</text></g><g transform="translate(0,30)" s:x="0" s:y="10" s:pid="in0" id="port_vga_principal~rst_i"><text x="-3" y="-4" class="inputPortLabel cell_vga_principal">rst_i</text></g><g transform="translate(30,10)" s:x="30" s:y="10" s:pid="out0" id="port_vga_principal~hsync_o"><text x="5" y="-4" style="fill:#000; stroke:none" class="cell_vga_principal">hsync_o</text></g><g transform="translate(30,30)" s:x="30" s:y="10" s:pid="out0" id="port_vga_principal~pixelx_o"><text x="5" y="-4" style="fill:#000; stroke:none" class="cell_vga_principal">pixelx_o</text></g><g transform="translate(30,50)" s:x="30" s:y="10" s:pid="out0" id="port_vga_principal~pixely_o"><text x="5" y="-4" style="fill:#000; stroke:none" class="cell_vga_principal">pixely_o</text></g><g transform="translate(30,70)" s:x="30" s:y="10" s:pid="out0" id="port_vga_principal~video_on_o"><text x="5" y="-4" style="fill:#000; stroke:none" class="cell_vga_principal">video_on_o</text></g><g transform="translate(30,90)" s:x="30" s:y="10" s:pid="out0" id="port_vga_principal~vsync_o"><text x="5" y="-4" style="fill:#000; stroke:none" class="cell_vga_principal">vsync_o</text></g></g><g s:type="inputExt" transform="translate(12,612)" s:width="30" s:height="20" id="cell_clk"><text x="15" y="-4" class="nodelabel cell_clk" s:attribute="ref">clk</text><s:alias val="$_inputExt_"/><path d="M0,0 L0,20 L15,20 L30,10 L15,0 Z" class="cell_clk"/><g s:x="30" s:y="10" s:pid="Y"/></g><g s:type="inputExt" transform="translate(12,754.5)" s:width="30" s:height="20" id="cell_rst"><text x="15" y="-4" class="nodelabel cell_rst" s:attribute="ref">rst</text><s:alias val="$_inputExt_"/><path d="M0,0 L0,20 L15,20 L30,10 L15,0 Z" class="cell_rst"/><g s:x="30" s:y="10" s:pid="Y"/></g><g s:type="inputExt" transform="translate(12,291.5)" s:width="30" s:height="20" id="cell_btn_up1"><text x="15" y="-4" class="nodelabel cell_btn_up1" s:attribute="ref">btn_up1</text><s:alias val="$_inputExt_"/><path d="M0,0 L0,20 L15,20 L30,10 L15,0 Z" class="cell_btn_up1"/><g s:x="30" s:y="10" s:pid="Y"/></g><g s:type="inputExt" transform="translate(12,421.5)" s:width="30" s:height="20" id="cell_btn_up2"><text x="15" y="-4" class="nodelabel cell_btn_up2" s:attribute="ref">btn_up2</text><s:alias val="$_inputExt_"/><path d="M0,0 L0,20 L15,20 L30,10 L15,0 Z" class="cell_btn_up2"/><g s:x="30" s:y="10" s:pid="Y"/></g><g s:type="inputExt" transform="translate(12,226.5)" s:width="30" s:height="20" id="cell_btn_down1"><text x="15" y="-4" class="nodelabel cell_btn_down1" s:attribute="ref">btn_down1</text><s:alias val="$_inputExt_"/><path d="M0,0 L0,20 L15,20 L30,10 L15,0 Z" class="cell_btn_down1"/><g s:x="30" s:y="10" s:pid="Y"/></g><g s:type="inputExt" transform="translate(12,356.5)" s:width="30" s:height="20" id="cell_btn_down2"><text x="15" y="-4" class="nodelabel cell_btn_down2" s:attribute="ref">btn_down2</text><s:alias val="$_inputExt_"/><path d="M0,0 L0,20 L15,20 L30,10 L15,0 Z" class="cell_btn_down2"/><g s:x="30" s:y="10" s:pid="Y"/></g><g s:type="outputExt" transform="translate(1032,195)" s:width="30" s:height="20" id="cell_hsync_o"><text x="15" y="-4" class="nodelabel cell_hsync_o" s:attribute="ref">hsync_o</text><s:alias val="$_outputExt_"/><path d="M30,0 L30,20 L15,20 L0,10 L15,0 Z" class="cell_hsync_o"/><g s:x="0" s:y="10" s:pid="A"/></g><g s:type="outputExt" transform="translate(1032,1008)" s:width="30" s:height="20" id="cell_vsync_o"><text x="15" y="-4" class="nodelabel cell_vsync_o" s:attribute="ref">vsync_o</text><s:alias val="$_outputExt_"/><path d="M30,0 L30,20 L15,20 L0,10 L15,0 Z" class="cell_vsync_o"/><g s:x="0" s:y="10" s:pid="A"/></g><g s:type="outputExt" transform="translate(1032,22)" s:width="30" s:height="20" id="cell_clk_o"><text x="15" y="-4" class="nodelabel cell_clk_o" s:attribute="ref">clk_o</text><s:alias val="$_outputExt_"/><path d="M30,0 L30,20 L15,20 L0,10 L15,0 Z" class="cell_clk_o"/><g s:x="0" s:y="10" s:pid="A"/></g><g s:type="outputExt" transform="translate(1032,900)" s:width="30" s:height="20" id="cell_r_o"><text x="15" y="-4" class="nodelabel cell_r_o" s:attribute="ref">r_o</text><s:alias val="$_outputExt_"/><path d="M30,0 L30,20 L15,20 L0,10 L15,0 Z" class="cell_r_o"/><g s:x="0" s:y="10" s:pid="A"/></g><g s:type="outputExt" transform="translate(1032,470.5)" s:width="30" s:height="20" id="cell_g_o"><text x="15" y="-4" class="nodelabel cell_g_o" s:attribute="ref">g_o</text><s:alias val="$_outputExt_"/><path d="M30,0 L30,20 L15,20 L0,10 L15,0 Z" class="cell_g_o"/><g s:x="0" s:y="10" s:pid="A"/></g><g s:type="outputExt" transform="translate(1032,87)" s:width="30" s:height="20" id="cell_b_o"><text x="15" y="-4" class="nodelabel cell_b_o" s:attribute="ref">b_o</text><s:alias val="$_outputExt_"/><path d="M30,0 L30,20 L15,20 L0,10 L15,0 Z" class="cell_b_o"/><g s:x="0" s:y="10" s:pid="A"/></g><line x1="42" x2="96" y1="622" y2="622" class="net_2 width_1" style="stroke-width: 1"/><line x1="96" x2="96" y1="622" y2="792.5" class="net_2 width_1" style="stroke-width: 1"/><line x1="96" x2="481" y1="792.5" y2="792.5" class="net_2 width_1" style="stroke-width: 1"/><line x1="481" x2="481" y1="792.5" y2="622" class="net_2 width_1" style="stroke-width: 1"/><circle cx="96" cy="622" r="2" style="fill:#000" class="net_2 width_1"/><circle cx="96" cy="792.5" r="2" style="fill:#000" class="net_2 width_1"/><line x1="481" x2="542" y1="622" y2="622" class="net_2 width_1" style="stroke-width: 1"/><line x1="42" x2="96" y1="622" y2="622" class="net_2 width_1" style="stroke-width: 1"/><line x1="96" x2="96" y1="622" y2="814.5" class="net_2 width_1" style="stroke-width: 1"/><circle cx="96" cy="814.5" r="2" style="fill:#000" class="net_2 width_1"/><line x1="96" x2="542" y1="814.5" y2="814.5" class="net_2 width_1" style="stroke-width: 1"/><line x1="42" x2="96" y1="622" y2="622" class="net_2 width_1" style="stroke-width: 1"/><line x1="96" x2="96" y1="622" y2="32" class="net_2 width_1" style="stroke-width: 1"/><line x1="96" x2="862" y1="32" y2="32" class="net_2 width_1" style="stroke-width: 1"/><line x1="862" x2="862" y1="32" y2="97" class="net_2 width_1" style="stroke-width: 1"/><circle cx="862" cy="32" r="2" style="fill:#000" class="net_2 width_1"/><line x1="862" x2="929" y1="97" y2="97" class="net_2 width_1" style="stroke-width: 1"/><line x1="42" x2="96" y1="622" y2="622" class="net_2 width_1" style="stroke-width: 1"/><line x1="96" x2="96" y1="622" y2="888" class="net_2 width_1" style="stroke-width: 1"/><line x1="96" x2="872" y1="888" y2="888" class="net_2 width_1" style="stroke-width: 1"/><line x1="872" x2="872" y1="888" y2="480.5" class="net_2 width_1" style="stroke-width: 1"/><circle cx="96" cy="888" r="2" style="fill:#000" class="net_2 width_1"/><line x1="872" x2="929" y1="480.5" y2="480.5" class="net_2 width_1" style="stroke-width: 1"/><line x1="42" x2="96" y1="622" y2="622" class="net_2 width_1" style="stroke-width: 1"/><line x1="96" x2="96" y1="622" y2="205" class="net_2 width_1" style="stroke-width: 1"/><circle cx="96" cy="205" r="2" style="fill:#000" class="net_2 width_1"/><line x1="96" x2="929" y1="205" y2="205" class="net_2 width_1" style="stroke-width: 1"/><line x1="42" x2="96" y1="622" y2="622" class="net_2 width_1" style="stroke-width: 1"/><line x1="96" x2="96" y1="622" y2="910" class="net_2 width_1" style="stroke-width: 1"/><circle cx="96" cy="910" r="2" style="fill:#000" class="net_2 width_1"/><line x1="96" x2="929" y1="910" y2="910" class="net_2 width_1" style="stroke-width: 1"/><line x1="42" x2="96" y1="622" y2="622" class="net_2 width_1" style="stroke-width: 1"/><line x1="96" x2="96" y1="622" y2="1018" class="net_2 width_1" style="stroke-width: 1"/><line x1="96" x2="929" y1="1018" y2="1018" class="net_2 width_1" style="stroke-width: 1"/><line x1="42" x2="367" y1="622" y2="622" class="net_2 width_1" style="stroke-width: 1"/><line x1="42" x2="96" y1="622" y2="622" class="net_2 width_1" style="stroke-width: 1"/><line x1="96" x2="96" y1="622" y2="406.5" class="net_2 width_1" style="stroke-width: 1"/><circle cx="96" cy="406.5" r="2" style="fill:#000" class="net_2 width_1"/><line x1="96" x2="161" y1="406.5" y2="406.5" class="net_2 width_1" style="stroke-width: 1"/><line x1="42" x2="96" y1="622" y2="622" class="net_2 width_1" style="stroke-width: 1"/><line x1="96" x2="96" y1="622" y2="276.5" class="net_2 width_1" style="stroke-width: 1"/><circle cx="96" cy="276.5" r="2" style="fill:#000" class="net_2 width_1"/><line x1="96" x2="161" y1="276.5" y2="276.5" class="net_2 width_1" style="stroke-width: 1"/><line x1="42" x2="96" y1="622" y2="622" class="net_2 width_1" style="stroke-width: 1"/><line x1="96" x2="96" y1="622" y2="662" class="net_2 width_1" style="stroke-width: 1"/><circle cx="96" cy="662" r="2" style="fill:#000" class="net_2 width_1"/><line x1="96" x2="137" y1="662" y2="662" class="net_2 width_1" style="stroke-width: 1"/><line x1="42" x2="96" y1="622" y2="622" class="net_2 width_1" style="stroke-width: 1"/><line x1="96" x2="96" y1="622" y2="32" class="net_2 width_1" style="stroke-width: 1"/><line x1="96" x2="1032" y1="32" y2="32" class="net_2 width_1" style="stroke-width: 1"/><line x1="42" x2="86" y1="764.5" y2="764.5" class="net_3 width_1" style="stroke-width: 1"/><line x1="86" x2="86" y1="764.5" y2="803.5" class="net_3 width_1" style="stroke-width: 1"/><line x1="86" x2="491" y1="803.5" y2="803.5" class="net_3 width_1" style="stroke-width: 1"/><line x1="491" x2="491" y1="803.5" y2="642" class="net_3 width_1" style="stroke-width: 1"/><circle cx="86" cy="764.5" r="2" style="fill:#000" class="net_3 width_1"/><circle cx="86" cy="803.5" r="2" style="fill:#000" class="net_3 width_1"/><line x1="491" x2="542" y1="642" y2="642" class="net_3 width_1" style="stroke-width: 1"/><line x1="42" x2="86" y1="764.5" y2="764.5" class="net_3 width_1" style="stroke-width: 1"/><line x1="86" x2="86" y1="764.5" y2="834.5" class="net_3 width_1" style="stroke-width: 1"/><circle cx="86" cy="834.5" r="2" style="fill:#000" class="net_3 width_1"/><line x1="86" x2="542" y1="834.5" y2="834.5" class="net_3 width_1" style="stroke-width: 1"/><line x1="42" x2="86" y1="764.5" y2="764.5" class="net_3 width_1" style="stroke-width: 1"/><line x1="86" x2="86" y1="764.5" y2="137" class="net_3 width_1" style="stroke-width: 1"/><line x1="86" x2="929" y1="137" y2="137" class="net_3 width_1" style="stroke-width: 1"/><line x1="42" x2="86" y1="764.5" y2="764.5" class="net_3 width_1" style="stroke-width: 1"/><line x1="86" x2="86" y1="764.5" y2="899" class="net_3 width_1" style="stroke-width: 1"/><line x1="86" x2="882" y1="899" y2="899" class="net_3 width_1" style="stroke-width: 1"/><line x1="882" x2="882" y1="899" y2="520.5" class="net_3 width_1" style="stroke-width: 1"/><circle cx="86" cy="899" r="2" style="fill:#000" class="net_3 width_1"/><line x1="882" x2="929" y1="520.5" y2="520.5" class="net_3 width_1" style="stroke-width: 1"/><line x1="42" x2="86" y1="764.5" y2="764.5" class="net_3 width_1" style="stroke-width: 1"/><line x1="86" x2="86" y1="764.5" y2="449" class="net_3 width_1" style="stroke-width: 1"/><line x1="86" x2="872" y1="449" y2="449" class="net_3 width_1" style="stroke-width: 1"/><line x1="872" x2="872" y1="449" y2="245" class="net_3 width_1" style="stroke-width: 1"/><circle cx="86" cy="449" r="2" style="fill:#000" class="net_3 width_1"/><line x1="872" x2="929" y1="245" y2="245" class="net_3 width_1" style="stroke-width: 1"/><line x1="42" x2="86" y1="764.5" y2="764.5" class="net_3 width_1" style="stroke-width: 1"/><line x1="86" x2="86" y1="764.5" y2="950" class="net_3 width_1" style="stroke-width: 1"/><circle cx="86" cy="950" r="2" style="fill:#000" class="net_3 width_1"/><line x1="86" x2="929" y1="950" y2="950" class="net_3 width_1" style="stroke-width: 1"/><line x1="42" x2="86" y1="764.5" y2="764.5" class="net_3 width_1" style="stroke-width: 1"/><line x1="86" x2="86" y1="764.5" y2="1058" class="net_3 width_1" style="stroke-width: 1"/><line x1="86" x2="929" y1="1058" y2="1058" class="net_3 width_1" style="stroke-width: 1"/><line x1="42" x2="293" y1="764.5" y2="764.5" class="net_3 width_1" style="stroke-width: 1"/><line x1="293" x2="293" y1="764.5" y2="722" class="net_3 width_1" style="stroke-width: 1"/><line x1="293" x2="367" y1="722" y2="722" class="net_3 width_1" style="stroke-width: 1"/><line x1="42" x2="86" y1="764.5" y2="764.5" class="net_3 width_1" style="stroke-width: 1"/><line x1="86" x2="86" y1="764.5" y2="426.5" class="net_3 width_1" style="stroke-width: 1"/><circle cx="86" cy="426.5" r="2" style="fill:#000" class="net_3 width_1"/><line x1="86" x2="161" y1="426.5" y2="426.5" class="net_3 width_1" style="stroke-width: 1"/><line x1="42" x2="86" y1="764.5" y2="764.5" class="net_3 width_1" style="stroke-width: 1"/><line x1="86" x2="86" y1="764.5" y2="296.5" class="net_3 width_1" style="stroke-width: 1"/><circle cx="86" cy="296.5" r="2" style="fill:#000" class="net_3 width_1"/><line x1="86" x2="161" y1="296.5" y2="296.5" class="net_3 width_1" style="stroke-width: 1"/><line x1="42" x2="86" y1="764.5" y2="764.5" class="net_3 width_1" style="stroke-width: 1"/><line x1="86" x2="86" y1="764.5" y2="682" class="net_3 width_1" style="stroke-width: 1"/><circle cx="86" cy="682" r="2" style="fill:#000" class="net_3 width_1"/><line x1="86" x2="137" y1="682" y2="682" class="net_3 width_1" style="stroke-width: 1"/><line x1="398" x2="542" y1="662" y2="662" class="net_17 width_1" style="stroke-width: 1"/><line x1="398" x2="501" y1="682" y2="682" class="net_22 width_1" style="stroke-width: 1"/><line x1="501" x2="501" y1="682" y2="854.5" class="net_22 width_1" style="stroke-width: 1"/><line x1="501" x2="542" y1="854.5" y2="854.5" class="net_22 width_1" style="stroke-width: 1"/><line x1="787" x2="862" y1="480.5" y2="480.5" class="net_23 width_1" style="stroke-width: 1"/><line x1="862" x2="862" y1="480.5" y2="117" class="net_23 width_1" style="stroke-width: 1"/><line x1="862" x2="929" y1="117" y2="117" class="net_23 width_1" style="stroke-width: 1"/><line x1="787" x2="929" y1="500.5" y2="500.5" class="net_24 width_1" style="stroke-width: 1"/><line x1="168" x2="239" y1="662" y2="662" class="net_25 width_1" style="stroke-width: 1"/><line x1="239" x2="239" y1="662" y2="225" class="net_25 width_1" style="stroke-width: 1"/><line x1="239" x2="929" y1="225" y2="225" class="net_25 width_1" style="stroke-width: 1"/><line x1="787" x2="862" y1="520.5" y2="520.5" class="net_26 width_1" style="stroke-width: 1"/><line x1="862" x2="862" y1="520.5" y2="930" class="net_26 width_1" style="stroke-width: 1"/><line x1="862" x2="929" y1="930" y2="930" class="net_26 width_1" style="stroke-width: 1"/><line x1="168" x2="239" y1="742" y2="742" class="net_27 width_1" style="stroke-width: 1"/><line x1="239" x2="239" y1="742" y2="1038" class="net_27 width_1" style="stroke-width: 1"/><line x1="239" x2="929" y1="1038" y2="1038" class="net_27 width_1" style="stroke-width: 1"/><line x1="192" x2="269" y1="236.5" y2="236.5" class="net_48,49,50,51,52,53,54,55,56,57 width_10" style="stroke-width: 2"/><line x1="269" x2="269" y1="236.5" y2="642" class="net_48,49,50,51,52,53,54,55,56,57 width_10" style="stroke-width: 2"/><line x1="269" x2="367" y1="642" y2="642" class="net_48,49,50,51,52,53,54,55,56,57 width_10" style="stroke-width: 2"/><line x1="192" x2="269" y1="236.5" y2="236.5" class="net_48,49,50,51,52,53,54,55,56,57 width_10" style="stroke-width: 2"/><line x1="269" x2="269" y1="236.5" y2="520.5" class="net_48,49,50,51,52,53,54,55,56,57 width_10" style="stroke-width: 2"/><circle cx="269" cy="520.5" r="3" style="fill:#000" class="net_48,49,50,51,52,53,54,55,56,57 width_10"/><line x1="269" x2="756" y1="520.5" y2="520.5" class="net_48,49,50,51,52,53,54,55,56,57 width_10" style="stroke-width: 2"/><line x1="192" x2="249" y1="366.5" y2="366.5" class="net_58,59,60,61,62,63,64,65,66,67 width_10" style="stroke-width: 2"/><line x1="249" x2="249" y1="366.5" y2="662" class="net_58,59,60,61,62,63,64,65,66,67 width_10" style="stroke-width: 2"/><line x1="249" x2="367" y1="662" y2="662" class="net_58,59,60,61,62,63,64,65,66,67 width_10" style="stroke-width: 2"/><line x1="192" x2="249" y1="366.5" y2="366.5" class="net_58,59,60,61,62,63,64,65,66,67 width_10" style="stroke-width: 2"/><line x1="249" x2="249" y1="366.5" y2="540.5" class="net_58,59,60,61,62,63,64,65,66,67 width_10" style="stroke-width: 2"/><circle cx="249" cy="540.5" r="3" style="fill:#000" class="net_58,59,60,61,62,63,64,65,66,67 width_10"/><line x1="249" x2="756" y1="540.5" y2="540.5" class="net_58,59,60,61,62,63,64,65,66,67 width_10" style="stroke-width: 2"/><line x1="168" x2="367" y1="682" y2="682" class="net_68,69,70,71,72,73,74,75,76,77 width_10" style="stroke-width: 2"/><line x1="168" x2="259" y1="682" y2="682" class="net_68,69,70,71,72,73,74,75,76,77 width_10" style="stroke-width: 2"/><line x1="259" x2="259" y1="682" y2="560.5" class="net_68,69,70,71,72,73,74,75,76,77 width_10" style="stroke-width: 2"/><circle cx="259" cy="682" r="3" style="fill:#000" class="net_68,69,70,71,72,73,74,75,76,77 width_10"/><line x1="259" x2="756" y1="560.5" y2="560.5" class="net_68,69,70,71,72,73,74,75,76,77 width_10" style="stroke-width: 2"/><line x1="168" x2="367" y1="702" y2="702" class="net_78,79,80,81,82,83,84,85,86,87 width_10" style="stroke-width: 2"/><line x1="168" x2="259" y1="702" y2="702" class="net_78,79,80,81,82,83,84,85,86,87 width_10" style="stroke-width: 2"/><line x1="259" x2="259" y1="702" y2="776.5" class="net_78,79,80,81,82,83,84,85,86,87 width_10" style="stroke-width: 2"/><line x1="259" x2="471" y1="776.5" y2="776.5" class="net_78,79,80,81,82,83,84,85,86,87 width_10" style="stroke-width: 2"/><line x1="471" x2="471" y1="776.5" y2="580.5" class="net_78,79,80,81,82,83,84,85,86,87 width_10" style="stroke-width: 2"/><circle cx="259" cy="702" r="3" style="fill:#000" class="net_78,79,80,81,82,83,84,85,86,87 width_10"/><line x1="471" x2="756" y1="580.5" y2="580.5" class="net_78,79,80,81,82,83,84,85,86,87 width_10" style="stroke-width: 2"/><line x1="42" x2="161" y1="366.5" y2="366.5" class="net_7 width_1" style="stroke-width: 1"/><line x1="42" x2="76" y1="431.5" y2="431.5" class="net_5 width_1" style="stroke-width: 1"/><line x1="76" x2="76" y1="431.5" y2="386.5" class="net_5 width_1" style="stroke-width: 1"/><line x1="76" x2="161" y1="386.5" y2="386.5" class="net_5 width_1" style="stroke-width: 1"/><line x1="42" x2="161" y1="236.5" y2="236.5" class="net_6 width_1" style="stroke-width: 1"/><line x1="42" x2="76" y1="301.5" y2="301.5" class="net_4 width_1" style="stroke-width: 1"/><line x1="76" x2="76" y1="301.5" y2="256.5" class="net_4 width_1" style="stroke-width: 1"/><line x1="76" x2="161" y1="256.5" y2="256.5" class="net_4 width_1" style="stroke-width: 1"/><line x1="398" x2="451" y1="622" y2="622" class="net_28,29,30,31,32,33,34,35,36,37 width_10" style="stroke-width: 2"/><line x1="451" x2="451" y1="622" y2="480.5" class="net_28,29,30,31,32,33,34,35,36,37 width_10" style="stroke-width: 2"/><line x1="451" x2="756" y1="480.5" y2="480.5" class="net_28,29,30,31,32,33,34,35,36,37 width_10" style="stroke-width: 2"/><line x1="398" x2="461" y1="642" y2="642" class="net_38,39,40,41,42,43,44,45,46,47 width_10" style="stroke-width: 2"/><line x1="461" x2="461" y1="642" y2="500.5" class="net_38,39,40,41,42,43,44,45,46,47 width_10" style="stroke-width: 2"/><line x1="461" x2="756" y1="500.5" y2="500.5" class="net_38,39,40,41,42,43,44,45,46,47 width_10" style="stroke-width: 2"/><line x1="573" x2="665" y1="622" y2="622" class="net_13,14,15,16 width_4" style="stroke-width: 2"/><line x1="665" x2="665" y1="622" y2="600.5" class="net_13,14,15,16 width_4" style="stroke-width: 2"/><line x1="665" x2="756" y1="600.5" y2="600.5" class="net_13,14,15,16 width_4" style="stroke-width: 2"/><line x1="573" x2="675" y1="814.5" y2="814.5" class="net_18,19,20,21 width_4" style="stroke-width: 2"/><line x1="675" x2="675" y1="814.5" y2="620.5" class="net_18,19,20,21 width_4" style="stroke-width: 2"/><line x1="675" x2="756" y1="620.5" y2="620.5" class="net_18,19,20,21 width_4" style="stroke-width: 2"/><line x1="168" x2="249" y1="722" y2="722" class="net_88 width_1" style="stroke-width: 1"/><line x1="249" x2="249" y1="722" y2="877" class="net_88 width_1" style="stroke-width: 1"/><line x1="249" x2="685" y1="877" y2="877" class="net_88 width_1" style="stroke-width: 1"/><line x1="685" x2="685" y1="877" y2="640.5" class="net_88 width_1" style="stroke-width: 1"/><line x1="685" x2="756" y1="640.5" y2="640.5" class="net_88 width_1" style="stroke-width: 1"/><line x1="960" x2="1032" y1="205" y2="205" class="net_8 width_1" style="stroke-width: 1"/><line x1="960" x2="1032" y1="1018" y2="1018" class="net_9 width_1" style="stroke-width: 1"/><line x1="960" x2="1032" y1="910" y2="910" class="net_10 width_1" style="stroke-width: 1"/><line x1="960" x2="1032" y1="480.5" y2="480.5" class="net_11 width_1" style="stroke-width: 1"/><line x1="960" x2="1032" y1="97" y2="97" class="net_12 width_1" style="stroke-width: 1"/><rect x="378.5" y="515.5" width="22" height="9" class="net_48,49,50,51,52,53,54,55,56,57 width_10 busLabel_10" style="fill: white; stroke: none"/><text x="377.5" y="523.5" class="net_48,49,50,51,52,53,54,55,56,57 width_10 busLabel_10">/10/</text><rect x="378.5" y="515.5" width="22" height="9" class="net_48,49,50,51,52,53,54,55,56,57 width_10 busLabel_10" style="fill: white; stroke: none"/><text x="377.5" y="523.5" class="net_48,49,50,51,52,53,54,55,56,57 width_10 busLabel_10">/10/</text><rect x="378.5" y="535.5" width="22" height="9" class="net_58,59,60,61,62,63,64,65,66,67 width_10 busLabel_10" style="fill: white; stroke: none"/><text x="377.5" y="543.5" class="net_58,59,60,61,62,63,64,65,66,67 width_10 busLabel_10">/10/</text><rect x="378.5" y="535.5" width="22" height="9" class="net_58,59,60,61,62,63,64,65,66,67 width_10 busLabel_10" style="fill: white; stroke: none"/><text x="377.5" y="543.5" class="net_58,59,60,61,62,63,64,65,66,67 width_10 busLabel_10">/10/</text><rect x="378.5" y="555.5" width="22" height="9" class="net_68,69,70,71,72,73,74,75,76,77 width_10 busLabel_10" style="fill: white; stroke: none"/><text x="377.5" y="563.5" class="net_68,69,70,71,72,73,74,75,76,77 width_10 busLabel_10">/10/</text><rect x="378.5" y="555.5" width="22" height="9" class="net_68,69,70,71,72,73,74,75,76,77 width_10 busLabel_10" style="fill: white; stroke: none"/><text x="377.5" y="563.5" class="net_68,69,70,71,72,73,74,75,76,77 width_10 busLabel_10">/10/</text><rect x="378.5" y="771.5" width="22" height="9" class="net_78,79,80,81,82,83,84,85,86,87 width_10 busLabel_10" style="fill: white; stroke: none"/><text x="377.5" y="779.5" class="net_78,79,80,81,82,83,84,85,86,87 width_10 busLabel_10">/10/</text><rect x="378.5" y="771.5" width="22" height="9" class="net_78,79,80,81,82,83,84,85,86,87 width_10 busLabel_10" style="fill: white; stroke: none"/><text x="377.5" y="779.5" class="net_78,79,80,81,82,83,84,85,86,87 width_10 busLabel_10">/10/</text><rect x="562.5" y="475.5" width="22" height="9" class="net_28,29,30,31,32,33,34,35,36,37 width_10 busLabel_10" style="fill: white; stroke: none"/><text x="561.5" y="483.5" class="net_28,29,30,31,32,33,34,35,36,37 width_10 busLabel_10">/10/</text><rect x="562.5" y="495.5" width="22" height="9" class="net_38,39,40,41,42,43,44,45,46,47 width_10 busLabel_10" style="fill: white; stroke: none"/><text x="561.5" y="503.5" class="net_38,39,40,41,42,43,44,45,46,47 width_10 busLabel_10">/10/</text><rect x="652" y="617" width="16" height="9" class="net_13,14,15,16 width_4 busLabel_4" style="fill: white; stroke: none"/><text x="651" y="625" class="net_13,14,15,16 width_4 busLabel_4">/4/</text><rect x="652" y="809.5" width="16" height="9" class="net_18,19,20,21 width_4 busLabel_4" style="fill: white; stroke: none"/><text x="651" y="817.5" class="net_18,19,20,21 width_4 busLabel_4">/4/</text></svg>